<mxfile host="app.diagrams.net" modified="2024-07-11T15:08:46.027Z" agent="Mozilla/5.0 (Windows NT 10.0; Win64; x64) AppleWebKit/537.36 (KHTML, like Gecko) Chrome/126.0.0.0 Safari/537.36 Edg/126.0.0.0" etag="PKfxuG9s0T8l8YP14ukp" version="24.6.4" type="device">
  <diagram name="PÃ¡gina-1" id="kOO67BtyJwkfZUySGsCj">
    <mxGraphModel dx="1666" dy="913" grid="1" gridSize="10" guides="1" tooltips="1" connect="1" arrows="1" fold="1" page="1" pageScale="1" pageWidth="827" pageHeight="1169" math="0" shadow="0">
      <root>
        <mxCell id="0" />
        <mxCell id="1" parent="0" />
        <mxCell id="gg1_0lN08heUCCT6dvPb-9" style="edgeStyle=orthogonalEdgeStyle;rounded=0;orthogonalLoop=1;jettySize=auto;html=1;" edge="1" parent="1" source="gg1_0lN08heUCCT6dvPb-1" target="gg1_0lN08heUCCT6dvPb-2">
          <mxGeometry relative="1" as="geometry" />
        </mxCell>
        <mxCell id="gg1_0lN08heUCCT6dvPb-1" value="Inicio" style="rounded=1;whiteSpace=wrap;html=1;" vertex="1" parent="1">
          <mxGeometry x="370" y="110" width="120" height="60" as="geometry" />
        </mxCell>
        <mxCell id="gg1_0lN08heUCCT6dvPb-10" style="edgeStyle=orthogonalEdgeStyle;rounded=0;orthogonalLoop=1;jettySize=auto;html=1;entryX=0.5;entryY=0;entryDx=0;entryDy=0;" edge="1" parent="1" source="gg1_0lN08heUCCT6dvPb-2" target="gg1_0lN08heUCCT6dvPb-3">
          <mxGeometry relative="1" as="geometry" />
        </mxCell>
        <mxCell id="gg1_0lN08heUCCT6dvPb-2" value="A, B, Sum int" style="shape=parallelogram;perimeter=parallelogramPerimeter;whiteSpace=wrap;html=1;fixedSize=1;" vertex="1" parent="1">
          <mxGeometry x="370" y="230" width="120" height="60" as="geometry" />
        </mxCell>
        <mxCell id="gg1_0lN08heUCCT6dvPb-11" style="edgeStyle=orthogonalEdgeStyle;rounded=0;orthogonalLoop=1;jettySize=auto;html=1;entryX=0.5;entryY=0;entryDx=0;entryDy=0;" edge="1" parent="1" source="gg1_0lN08heUCCT6dvPb-3" target="gg1_0lN08heUCCT6dvPb-4">
          <mxGeometry relative="1" as="geometry" />
        </mxCell>
        <mxCell id="gg1_0lN08heUCCT6dvPb-3" value="A = 1, B = 1, Sum = 0" style="shape=process;whiteSpace=wrap;html=1;backgroundOutline=1;" vertex="1" parent="1">
          <mxGeometry x="370" y="350" width="120" height="60" as="geometry" />
        </mxCell>
        <mxCell id="gg1_0lN08heUCCT6dvPb-12" style="edgeStyle=orthogonalEdgeStyle;rounded=0;orthogonalLoop=1;jettySize=auto;html=1;entryX=0.5;entryY=0;entryDx=0;entryDy=0;" edge="1" parent="1" source="gg1_0lN08heUCCT6dvPb-4" target="gg1_0lN08heUCCT6dvPb-6">
          <mxGeometry relative="1" as="geometry" />
        </mxCell>
        <mxCell id="gg1_0lN08heUCCT6dvPb-4" value="for (B = 1;&amp;nbsp; B &amp;lt;= 10; B ++)" style="shape=process;whiteSpace=wrap;html=1;backgroundOutline=1;" vertex="1" parent="1">
          <mxGeometry x="335" y="460" width="190" height="60" as="geometry" />
        </mxCell>
        <mxCell id="gg1_0lN08heUCCT6dvPb-13" style="edgeStyle=orthogonalEdgeStyle;rounded=0;orthogonalLoop=1;jettySize=auto;html=1;entryX=0.5;entryY=0;entryDx=0;entryDy=0;" edge="1" parent="1" source="gg1_0lN08heUCCT6dvPb-6" target="gg1_0lN08heUCCT6dvPb-7">
          <mxGeometry relative="1" as="geometry" />
        </mxCell>
        <mxCell id="gg1_0lN08heUCCT6dvPb-6" value="Sum (A + B)" style="shape=process;whiteSpace=wrap;html=1;backgroundOutline=1;" vertex="1" parent="1">
          <mxGeometry x="370" y="580" width="120" height="60" as="geometry" />
        </mxCell>
        <mxCell id="gg1_0lN08heUCCT6dvPb-14" style="edgeStyle=orthogonalEdgeStyle;rounded=0;orthogonalLoop=1;jettySize=auto;html=1;entryX=0.5;entryY=0;entryDx=0;entryDy=0;" edge="1" parent="1" source="gg1_0lN08heUCCT6dvPb-7" target="gg1_0lN08heUCCT6dvPb-8">
          <mxGeometry relative="1" as="geometry" />
        </mxCell>
        <mxCell id="gg1_0lN08heUCCT6dvPb-7" value="Suma de los numeros es &quot;Sum&quot;" style="shape=document;whiteSpace=wrap;html=1;boundedLbl=1;" vertex="1" parent="1">
          <mxGeometry x="370" y="700" width="120" height="80" as="geometry" />
        </mxCell>
        <mxCell id="gg1_0lN08heUCCT6dvPb-8" value="fin" style="rounded=1;whiteSpace=wrap;html=1;" vertex="1" parent="1">
          <mxGeometry x="370" y="830" width="120" height="60" as="geometry" />
        </mxCell>
      </root>
    </mxGraphModel>
  </diagram>
</mxfile>
